<?xml version="1.0" encoding="utf-8"?>
<!-- Generator: Adobe Illustrator 17.1.0, SVG Export Plug-In . SVG Version: 6.00 Build 0)  -->
<!DOCTYPE svg PUBLIC "-//W3C//DTD SVG 1.1//EN" "http://www.w3.org/Graphics/SVG/1.1/DTD/svg11.dtd">
<svg version="1.1" id="Layer_1" xmlns="http://www.w3.org/2000/svg" xmlns:xlink="http://www.w3.org/1999/xlink" x="0px" y="0px"
	 viewBox="0 0 64 64" enable-background="new 0 0 64 64" xml:space="preserve">
<g>
	<ellipse fill="#65B1EF" cx="17.5" cy="59.9" rx="12.5" ry="1.5"/>
	<ellipse fill="#65B1EF" cx="44" cy="60.2" rx="18" ry="1.8"/>
</g>
<circle display="none" fill="#FFDD67" cx="32" cy="32" r="30"/>
<path fill="#664E27" d="M44.7,46c-1.4-3.6-4.8-6-12.7-6c-8,0-11.3,2.4-12.7,6c-0.7,1.9,0.3,5,0.3,5c1.3,3.9,1.1,5,12.4,5
	c11.3,0,11.1-1.1,12.4-5C44.4,51,45.5,47.9,44.7,46z"/>
<path fill="#FFFFFF" d="M41,45c0.1-0.3,0-0.6-0.2-0.8c0,0-2-2.2-8.8-2.2c-6.8,0-8.8,2.2-8.8,2.2C23,44.3,23,44.7,23,45l0.2,0.6
	c0.1,0.3,0.3,0.5,0.5,0.5h16.6c0.2,0,0.5-0.2,0.5-0.5C40.8,45.5,41,45,41,45z"/>
<g>
	<path fill="#65B1EF" d="M44.5,60.5h6.8c8.2-9.9-1.5-20,0.9-29.8c-2.3,0-4.6,2.5-6.8,2.5C42.2,42.7,52.7,50.6,44.5,60.5z M19.5,60.5
		h-6.8c-8.2-9.9,1.5-20-0.9-29.8c2.3,0,4.6,2.5,6.8,2.5C21.8,42.7,11.3,50.6,19.5,60.5z"/>
</g>
<g>
	<path fill="#917524" d="M40.7,18.3c3,3,7.2,4.5,11.4,4.1c0.6-0.1,0.9,2.1,0.2,2.2c-4.9,0.4-9.7-1.3-13.1-4.8
		C38.6,19.3,40.3,17.9,40.7,18.3z M12,22.4c4.2,0.4,8.4-1.1,11.4-4.1c0.4-0.4,2.1,1,1.6,1.5c-3.4,3.5-8.3,5.2-13.1,4.8
		C11,24.6,11.4,22.4,12,22.4z"/>
</g>
<g>
	<path fill="#664E27" d="M35.9,30.3c4.2,8,12.7,8,16.9,0c0.2-0.4-0.3-0.6-1-1c-4.2,3.3-11.1,3-14.9,0C36.3,29.7,35.7,29.9,35.9,30.3
		z M11.2,30.3c4.2,8,12.7,8,16.9,0c0.2-0.4-0.3-0.6-1-1c-4.2,3.3-11.1,3-14.9,0C11.5,29.7,11,29.9,11.2,30.3z"/>
</g>
</svg>
