<?xml version="1.0" encoding="utf-8"?>
<!-- Generator: Adobe Illustrator 17.1.0, SVG Export Plug-In . SVG Version: 6.00 Build 0)  -->
<!DOCTYPE svg PUBLIC "-//W3C//DTD SVG 1.1//EN" "http://www.w3.org/Graphics/SVG/1.1/DTD/svg11.dtd">
<svg version="1.1" id="Layer_1" xmlns="http://www.w3.org/2000/svg" xmlns:xlink="http://www.w3.org/1999/xlink" x="0px" y="0px"
	 viewBox="0 0 64 64" enable-background="new 0 0 64 64" xml:space="preserve">
<circle display="none" fill="#FFDD67" cx="32" cy="32" r="30"/>
<g>
	<path fill="#664E27" d="M51.7,19.4c0.3,0.1,0.4,0.5,0.3,0.8c-0.1,0.2-0.2,0.3-0.4,0.3c-2.7,0.4-5.5,0.9-8.3,2.4
		c4,0.7,7.2,2.7,9,4.8c0.4,0.5-0.1,1.1-0.5,1c-4.8-1.7-9.7-2.7-15.8-2c-0.5,0-0.9-0.2-0.8-0.7C36.7,18.7,46,16,51.7,19.4z
		 M12.3,19.4c-0.3,0.1-0.4,0.5-0.3,0.8c0.1,0.2,0.2,0.3,0.4,0.3c2.7,0.4,5.5,0.9,8.3,2.4c-4,0.7-7.2,2.7-9,4.8
		c-0.4,0.5,0.1,1.1,0.5,1c4.8-1.7,9.7-2.7,15.8-2c0.5,0,0.9-0.2,0.8-0.7C27.3,18.7,18,16,12.3,19.4z"/>
</g>
<path fill="#664E27" d="M49.7,34.4c-0.4-0.5-1.1-0.4-1.9-0.4H16.2c-0.8,0-1.5-0.1-1.9,0.4C10.4,39.4,15,54,32,54
	C49,54,53.6,39.4,49.7,34.4z"/>
<path fill="#4C3526" d="M33.8,41.7c-0.6,0-1.5,0.5-1.1,2c0.2,0.7,1.2,1.6,1.2,2.8c0,2.4-3.8,2.4-3.8,0c0-1.2,1-2,1.2-2.8
	c0.3-1.4-0.6-2-1.1-2c-1.6,0-4.1,1.7-4.1,4.6c0,3.2,2.7,5.8,6,5.8s6-2.6,6-5.8C38,43.5,35.4,41.8,33.8,41.7z"/>
<path fill="#FF717F" d="M24.3,50.7c2.2,1,4.8,1.5,7.7,1.5s5.5-0.6,7.7-1.5C37.6,49.6,35,49,32,49S26.4,49.6,24.3,50.7z"/>
<path fill="#FFFFFF" d="M47,36H17C15,36,15,40,17,40h30C49,40,49,36,47,36z"/>
</svg>
